<svg width="25" height="20" viewBox="0 0 25 20" fill="none" xmlns="http://www.w3.org/2000/svg">
<path d="M5.625 5.75C4.17458 5.75 3 4.57542 3 3.125C3 1.67458 4.17458 0.5 5.625 0.5C7.07542 0.5 8.25 1.67458 8.25 3.125C8.25 4.57542 7.07542 5.75 5.625 5.75ZM20 5.75C18.5496 5.75 17.375 4.57542 17.375 3.125C17.375 1.67458 18.5496 0.5 20 0.5C21.4504 0.5 22.625 1.67458 22.625 3.125C22.625 4.57542 21.4504 5.75 20 5.75ZM0.5 11.668C0.5 9.64333 2.14333 8 4.16797 8H5.83594C6.2535 8 6.65492 8.0701 7.02992 8.19827C7.01222 8.38112 7.00391 8.5656 7.00391 8.75C7.00391 9.96581 7.40012 11.0894 8.0673 12H0.832031C0.651142 12 0.5 11.8489 0.5 11.668ZM17.9961 8.75C17.9961 8.56221 17.9862 8.37817 17.9682 8.19731C18.342 8.06864 18.744 8 19.1641 8H20.832C22.8567 8 24.5 9.64333 24.5 11.668C24.5 11.8512 24.3504 12 24.168 12H16.9344C17.6024 11.0889 17.9961 9.9652 17.9961 8.75ZM15.75 8.75C15.75 10.5442 14.2942 12 12.5 12C10.7058 12 9.25 10.5442 9.25 8.75C9.25 6.95583 10.7058 5.5 12.5 5.5C14.2942 5.5 15.75 6.95583 15.75 8.75ZM5.5 18.957C5.5 16.3582 7.60817 14.25 10.207 14.25H14.793C17.3918 14.25 19.5 16.3582 19.5 18.957C19.5 19.2563 19.2578 19.5 18.957 19.5H6.04297C5.74367 19.5 5.5 19.2578 5.5 18.957Z" fill="white" stroke="#D9D9D9"/>
</svg>
