<svg width="23" height="18" viewBox="0 0 23 18" fill="none" xmlns="http://www.w3.org/2000/svg">
<path d="M3.03303 7.23621L2.96484 7.35302V7.35697L0.5 11.5808V2.5C0.5 1.39724 1.39724 0.5 2.5 0.5H7.08984C7.62246 0.5 8.13166 0.709856 8.50582 1.08402L9.54098 2.11918C10.1043 2.68251 10.8686 2.99609 11.6641 2.99609H16.25C17.3528 2.99609 18.25 3.89333 18.25 4.99609V5.74609H5.625C4.5559 5.74609 3.57153 6.31375 3.03303 7.23621ZM4.97876 8.36912L4.97767 8.36828C5.11519 8.13796 5.35942 8 5.625 8H21.25C21.5195 8 21.7639 8.14188 21.8976 8.37651C22.0332 8.61429 22.0315 8.90005 21.8967 9.13006L21.8962 9.13088L17.5212 16.6309L17.5209 16.6314C17.3887 16.8588 17.144 17 16.875 17H1.25C0.980465 17 0.736096 16.8581 0.602357 16.6235C0.466824 16.3857 0.46853 16.1 0.60329 15.8699L0.603764 15.8691L4.97876 8.36912Z" fill="#0885F8" stroke="#D9D9D9"/>
</svg>
