<svg width="27" height="20" viewBox="0 0 27 20" fill="none" xmlns="http://www.w3.org/2000/svg">
<path d="M11.5002 19.4848C10.2938 19.0541 8.17318 18.3892 6.53856 18.3892C4.71325 18.3892 2.38973 18.9566 0.93768 19.4405C0.841613 19.4716 0.727561 19.4545 0.633645 19.3914C0.541509 19.3295 0.5 19.2461 0.5 19.1661V1.90254C0.5 1.81483 0.548835 1.75075 0.60562 1.72642L0.605621 1.72642L0.607315 1.72569C1.749 1.2314 4.05969 0.5 6.53856 0.5C9.08914 0.5 11.0196 1.37687 11.8122 2.00769L11.8121 2.00776L11.8198 2.01365C11.8224 2.01561 11.8291 2.02151 11.8364 2.03811C11.8441 2.05593 11.8506 2.08272 11.8506 2.11595V19.2524C11.8506 19.4096 11.6798 19.5475 11.5002 19.4848ZM11.5002 19.4848C11.5007 19.485 11.5012 19.4852 11.5017 19.4853L11.3335 19.9562L11.4995 19.4846C11.4997 19.4846 11.4999 19.4847 11.5002 19.4848ZM19.6157 18.3892C17.9806 18.3892 15.8592 19.0544 14.653 19.4852C14.4781 19.547 14.3036 19.4092 14.3036 19.2524V2.11595C14.3036 2.08685 14.3097 2.06052 14.3185 2.04064C14.327 2.02136 14.3358 2.01257 14.3401 2.00923L14.342 2.00769C15.1346 1.37687 17.0651 0.5 19.6157 0.5C22.0945 0.5 24.4052 1.2314 25.5469 1.72569L25.5486 1.72642C25.607 1.75146 25.6542 1.81219 25.6542 1.90254V19.1661C25.6542 19.2468 25.612 19.3314 25.5198 19.3936C25.4259 19.457 25.3134 19.4731 25.2193 19.4414L25.218 19.441C23.7661 18.957 21.4416 18.3892 19.6157 18.3892Z" fill="#0885F8" stroke="#D9D9D9"/>
</svg>
